<svg width="178" height="50" fill="none" xmlns="http://www.w3.org/2000/svg"><path d="M6.232 40.41c-1.558 0-2.856-.492-3.895-1.476C1.326 37.923.82 36.638.82 35.08c0-1.558.506-2.815 1.517-3.772 1.039-.984 2.337-1.476 3.895-1.476 1.558 0 2.843.492 3.854 1.476 1.039.957 1.558 2.214 1.558 3.772 0 1.558-.52 2.843-1.558 3.854-1.011.984-2.296 1.476-3.854 1.476zm14.017-.31L6.719 1.478h8.2L28.449 40.1h-8.2zm14.774 0L21.493 1.478h8.2L43.223 40.1h-8.2zm33.151-22.158V40h-6.068v-2.624a8.705 8.705 0 01-3.034 2.214c-1.175.492-2.446.738-3.813.738-2.897 0-5.193-.834-6.888-2.501-1.695-1.667-2.542-4.141-2.542-7.421V17.942h6.396v11.521c0 3.553 1.49 5.33 4.47 5.33 1.53 0 2.76-.492 3.69-1.476.928-1.011 1.393-2.501 1.393-4.469V17.942h6.396zm12.034 2.911c.766-1.066 1.79-1.872 3.076-2.419 1.311-.547 2.815-.82 4.51-.82v5.904a23.053 23.053 0 00-1.435-.082c-1.832 0-3.267.52-4.305 1.558-1.04 1.011-1.558 2.542-1.558 4.592V40H74.1V17.942h6.109v2.911zm39.638-3.239c2.76 0 4.947.82 6.56 2.46 1.64 1.613 2.46 4.045 2.46 7.298V40h-6.396V28.356c0-1.75-.369-3.048-1.107-3.895-.711-.875-1.736-1.312-3.075-1.312-1.504 0-2.693.492-3.567 1.476-.875.957-1.312 2.392-1.312 4.305V40h-6.396V28.356c0-3.471-1.394-5.207-4.182-5.207-1.476 0-2.652.492-3.526 1.476-.875.957-1.312 2.392-1.312 4.305V40h-6.396V17.942h6.109v2.542a8.108 8.108 0 012.993-2.132c1.202-.492 2.514-.738 3.936-.738 1.558 0 2.965.314 4.223.943a7.339 7.339 0 013.034 2.665 9.083 9.083 0 013.403-2.665c1.394-.629 2.911-.943 4.551-.943zm36.975.328V40h-6.068v-2.624a8.713 8.713 0 01-3.034 2.214c-1.176.492-2.447.738-3.813.738-2.898 0-5.194-.834-6.888-2.501-1.695-1.667-2.542-4.141-2.542-7.421V17.942h6.396v11.521c0 3.553 1.489 5.33 4.469 5.33 1.53 0 2.76-.492 3.69-1.476.929-1.011 1.394-2.501 1.394-4.469V17.942h6.396zm12.034 2.911c.765-1.066 1.79-1.872 3.075-2.419 1.312-.547 2.815-.82 4.51-.82v5.904a23.07 23.07 0 00-1.435-.082c-1.831 0-3.266.52-4.305 1.558-1.039 1.011-1.558 2.542-1.558 4.592V40h-6.396V17.942h6.109v2.911z" fill="#3F2B89"/></svg>